Coordinates
version=1
nRows=27
nColumns=38
inDegrees=no

Units are S.I. units (second, meters, Newtons, ...)
If the header above contains a line with 'inDegrees', this indicates whether rotational values are in degrees (yes) or radians (no).

endheader
time	pelvis_tilt	pelvis_list	pelvis_rotation	pelvis_tx	pelvis_ty	pelvis_tz	hip_flexion_r	hip_adduction_r	hip_rotation_r	knee_angle_r	ankle_angle_r	subtalar_angle_r	mtp_angle_r	hip_flexion_l	hip_adduction_l	hip_rotation_l	knee_angle_l	ankle_angle_l	subtalar_angle_l	mtp_angle_l	lumbar_extension	lumbar_bending	lumbar_rotation	arm_flex_r	arm_add_r	arm_rot_r	elbow_flex_r	pro_sup_r	wrist_flex_r	wrist_dev_r	arm_flex_l	arm_add_l	arm_rot_l	elbow_flex_l	pro_sup_l	wrist_flex_l	wrist_dev_l
45	0.713933	1.45365	0.759746	0.77018	0.142505	0.999626	0.0487432	0.0197627	-0.121332	0.123799	0.070324	0	0	-0.0203659	-0.112962	-0.251874	0.0405106	0.0499716	0	0	0.0235372	0.133063	0.0476872	0.13419	-0.223307	0.0624121	0.188263	1.54258	0	0	0.129261	-0.178674	0.252665	0.158712	1.5708	0	0
45.01	0.715647	1.45451	0.75687	0.770027	0.142743	0.999563	0.0497606	0.0187935	-0.120992	0.128276	0.0730025	0	0	-0.0205692	-0.112357	-0.252793	0.0429656	0.0519318	0	0	0.0226228	0.132737	0.0485962	0.134216	-0.223635	0.0623391	0.187931	1.5429	0	0	0.128737	-0.178516	0.252706	0.158855	1.5708	0	0
45.02	0.718864	1.45542	0.75282	0.769862	0.142986	0.999489	0.0507342	0.0179076	-0.121231	0.133043	0.0757923	0	0	-0.0207907	-0.111879	-0.25311	0.0456149	0.0539335	0	0	0.0216449	0.132431	0.04912	0.134116	-0.223906	0.0624725	0.187753	1.54352	0	0	0.128202	-0.178464	0.252764	0.158922	1.5708	0	0
45.03	0.720361	1.45648	0.750402	0.769691	0.143271	0.999402	0.0520879	0.0165931	-0.121706	0.138669	0.0794005	0	0	-0.0209253	-0.111128	-0.253744	0.0484718	0.0561582	0	0	0.02089	0.131862	0.0497273	0.13363	-0.224155	0.0628552	0.187622	1.54428	0	0	0.127516	-0.178411	0.252671	0.158969	1.5708	0	0
45.04	0.720455	1.45763	0.74924	0.769533	0.143588	0.999313	0.0536656	0.0150217	-0.121767	0.144568	0.0833053	0	0	-0.020847	-0.110226	-0.254827	0.051762	0.0586413	0	0	0.0203439	0.131115	0.0504804	0.132987	-0.224326	0.0627939	0.187428	1.54474	0	0	0.126712	-0.178339	0.252468	0.159048	1.5708	0	0
45.05	0.722228	1.45884	0.746693	0.769354	0.143916	0.999224	0.0552222	0.0135827	-0.122144	0.150988	0.0871022	0	0	-0.0205641	-0.109521	-0.255882	0.0558225	0.0615551	0	0	0.0196389	0.130438	0.0509088	0.132361	-0.224451	0.062439	0.18739	1.54522	0	0	0.125895	-0.178294	0.252411	0.159291	1.5708	0	0
45.06	0.724898	1.46018	0.743427	0.769149	0.144262	0.99911	0.0568841	0.0120803	-0.122648	0.158136	0.0912318	0	0	-0.0199725	-0.108906	-0.257064	0.060913	0.0651427	0	0	0.0188029	0.1297	0.0511308	0.131571	-0.224657	0.0622142	0.187674	1.54601	0	0	0.124971	-0.178336	0.252377	0.159639	1.5708	0	0
45.07	0.727105	1.46157	0.740749	0.768925	0.144607	0.998952	0.0588518	0.0104527	-0.123146	0.165988	0.096087	0	0	-0.0189628	-0.108276	-0.258102	0.066846	0.069205	0	0	0.0180143	0.128877	0.0512465	0.130767	-0.224807	0.0617882	0.187909	1.5468	0	0	0.12402	-0.178391	0.252477	0.159984	1.5708	0	0
45.08	0.729033	1.46301	0.73853	0.768679	0.144943	0.998753	0.0613257	0.00870839	-0.123883	0.174979	0.101544	0	0	-0.0173021	-0.107716	-0.259097	0.0740638	0.0739571	0	0	0.0172256	0.128008	0.0512847	0.130004	-0.224946	0.0607964	0.188082	1.5474	0	0	0.123166	-0.178445	0.252764	0.160263	1.5708	0	0
45.09	0.731248	1.46453	0.736086	0.76843	0.145278	0.998515	0.0643685	0.00685117	-0.124677	0.185255	0.107437	0	0	-0.014936	-0.107282	-0.260491	0.0828062	0.0794202	0	0	0.0163327	0.127143	0.0513069	0.129116	-0.225242	0.0597709	0.18855	1.54827	0	0	0.122275	-0.178536	0.253135	0.160772	1.5708	0	0
45.1	0.732705	1.46621	0.734289	0.768191	0.145605	0.998238	0.0681151	0.00474298	-0.124921	0.196926	0.113942	0	0	-0.0119989	-0.106756	-0.262063	0.0928864	0.0855095	0	0	0.0152952	0.126093	0.0515622	0.128219	-0.225659	0.0588849	0.189152	1.54939	0	0	0.121456	-0.178662	0.253627	0.161436	1.5708	0	0
45.11	0.731983	1.46817	0.734457	0.767968	0.145931	0.997925	0.0728721	0.00216523	-0.124857	0.210756	0.121334	0	0	-0.0087808	-0.105874	-0.263683	0.103738	0.0918611	0	0	0.0141184	0.124616	0.0521495	0.127446	-0.225952	0.0579599	0.189605	1.55079	0	0	0.120714	-0.178883	0.254111	0.162099	1.5708	0	0
45.12	0.729384	1.47044	0.736315	0.767763	0.146266	0.997559	0.0787796	-0.000829501	-0.124145	0.227162	0.129519	0	0	-0.00531011	-0.104713	-0.265498	0.115438	0.0986659	0	0	0.0127837	0.122729	0.05304	0.126713	-0.225967	0.0568002	0.189747	1.552	0	0	0.119975	-0.179245	0.254634	0.162859	1.5708	0	0
45.13	0.725404	1.4729	0.739294	0.767576	0.146578	0.997135	0.0857463	-0.00403036	-0.122323	0.245575	0.137771	0	0	-0.00159366	-0.103339	-0.267309	0.127782	0.105773	0	0	0.0112776	0.120629	0.0543285	0.125927	-0.225965	0.0554108	0.189952	1.5525	0	0	0.119277	-0.179657	0.2551	0.163873	1.5708	0	0
45.14	0.721014	1.47538	0.742405	0.76742	0.146844	0.996666	0.0936893	-0.00718588	-0.119549	0.26576	0.145939	0	0	0.0024824	-0.102036	-0.269286	0.140867	0.113132	0	0	0.00957233	0.118457	0.0560541	0.125165	-0.225985	0.0540517	0.19006	1.5529	0	0	0.118754	-0.180045	0.255464	0.164955	1.5708	0	0
45.15	0.71571	1.47771	0.746169	0.767287	0.147051	0.996159	0.102638	-0.0101537	-0.116242	0.287503	0.154025	0	0	0.00714375	-0.100872	-0.271063	0.154753	0.120676	0	0	0.00777244	0.116343	0.0581692	0.12442	-0.226044	0.052698	0.190164	1.55365	0	0	0.118377	-0.180402	0.255844	0.166125	1.5708	0	0
45.16	0.710475	1.48004	0.749862	0.767156	0.14722	0.99561	0.111742	-0.0127629	-0.11092	0.309486	0.162073	0	0	0.0121815	-0.0997492	-0.27215	0.169413	0.128393	0	0	0.005712	0.114224	0.0604153	0.123629	-0.22617	0.0509699	0.190874	1.55442	0	0	0.118051	-0.180841	0.256293	0.167632	1.5708	0	0
45.17	0.707328	1.48262	0.751699	0.767023	0.147401	0.995009	0.120508	-0.0150992	-0.104211	0.331735	0.17027	0	0	0.0171759	-0.0987248	-0.272713	0.184828	0.136495	0	0	0.00320615	0.112012	0.0625853	0.122562	-0.226355	0.0487315	0.192075	1.55491	0	0	0.117657	-0.181453	0.256736	0.169705	1.5708	0	0
45.18	0.704541	1.48518	0.753385	0.76689	0.147555	0.994296	0.129269	-0.0171365	-0.0966916	0.354026	0.17841	0	0	0.0226895	-0.0979063	-0.272731	0.201348	0.145152	0	0	0.000458279	0.109747	0.0645915	0.121373	-0.226496	0.0460928	0.193498	1.55527	0	0	0.117137	-0.182308	0.257108	0.172315	1.5708	0	0
45.19	0.69962	1.48744	0.757026	0.766798	0.147625	0.99343	0.13843	-0.0187699	-0.0881684	0.376124	0.186642	0	0	0.0293714	-0.0974413	-0.272555	0.219475	0.154556	0	0	-0.00236397	0.107485	0.0667905	0.120448	-0.226511	0.0422859	0.195048	1.55661	0	0	0.116468	-0.18351	0.257947	0.175649	1.5708	0	0
45.2	0.696207	1.48946	0.759539	0.766706	0.147726	0.992417	0.147058	-0.0198607	-0.0792617	0.397056	0.19474	0	0	0.0363969	-0.0972278	-0.271564	0.238052	0.164262	0	0	-0.0041402	0.105737	0.0674849	0.114497	-0.231538	0.104405	0.207009	1.47505	0	0	0.114433	-0.185554	0.257743	0.180129	1.5708	0	0
45.21	0.690384	1.4917	0.76388	0.766648	0.147806	0.991279	0.155805	-0.0209531	-0.0691362	0.418259	0.203174	0	0	0.0435117	-0.0966916	-0.270731	0.257239	0.174285	0	0	-0.00762536	0.103203	0.0711886	0.118948	-0.22629	0.0262482	0.196436	1.5708	0	0	0.114208	-0.186438	0.262796	0.18358	1.5708	0	0
45.22	0.684035	1.49446	0.768253	0.766596	0.147868	0.99	0.164283	-0.0221243	-0.0574748	0.439735	0.212417	0	0	0.050187	-0.0956169	-0.269646	0.276658	0.184673	0	0	-0.0112792	0.100488	0.0740483	0.117935	-0.226606	0.0240698	0.198226	1.5708	0	0	0.113116	-0.18795	0.263718	0.187984	1.5708	0	0
45.23	0.675402	1.49719	0.774814	0.766563	0.147927	0.988607	0.172546	-0.0231975	-0.0464693	0.460282	0.221249	0	0	0.0566976	-0.0943453	-0.268161	0.295516	0.194983	0	0	-0.0146834	0.0976227	0.0769378	0.116706	-0.226853	0.0226408	0.200126	1.5708	0	0	0.11205	-0.189382	0.264234	0.191815	1.5708	0	0
45.24	0.660645	1.50006	0.786878	0.766611	0.14791	0.987108	0.181319	-0.0243073	-0.0349429	0.481302	0.229996	0	0	0.0629208	-0.0925506	-0.266913	0.313549	0.205266	0	0	-0.0182142	0.0941641	0.0803846	0.115699	-0.226951	0.0218634	0.201942	1.5708	0	0	0.111155	-0.191001	0.264606	0.195594	1.5708	0	0
45.25	0.637517	1.50318	0.806794	0.766704	0.147797	0.985515	0.190783	-0.0255668	-0.0222364	0.503176	0.238852	0	0	0.0688672	-0.090179	-0.266276	0.330738	0.215437	0	0	-0.021964	0.0900239	0.0843137	0.115195	-0.226554	0.0209686	0.203072	1.5708	0	0	0.110489	-0.192727	0.264889	0.19949	1.5708	0	0
45.26	0.605247	1.50628	0.835317	0.766831	0.1476	0.983817	0.201057	-0.0267947	-0.00837231	0.525769	0.247689	0	0	0.0746539	-0.0873823	-0.2659	0.347008	0.225734	0	0	-0.0257537	0.085457	0.0886913	0.115017	-0.225764	0.0201095	0.203932	1.5708	0	0	0.109865	-0.194464	0.264993	0.20355	1.5708	0	0
